<?xml version="1.0" standalone="no"?>
<!DOCTYPE svg PUBLIC "-//W3C//DTD SVG 20010904//EN"
 "http://www.w3.org/TR/2001/REC-SVG-20010904/DTD/svg10.dtd">
<svg version="1.0" xmlns="http://www.w3.org/2000/svg"
 width="512.000000pt" height="512.000000pt" viewBox="0 0 512.000000 512.000000"
 preserveAspectRatio="xMidYMid meet">
<metadata>
Created by potrace 1.14, written by Peter Selinger 2001-2017
</metadata>
<g transform="translate(0.000000,512.000000) scale(0.100000,-0.100000)"
fill="#000000" stroke="none">
<path d="M882 4576 c-4 -7 -7 -2305 -3 -2363 1 -8 46 -11 165 -11 l165 1 0
1041 c0 573 0 1055 0 1072 1 29 4 31 39 32 36 2 38 0 78 -76 23 -42 97 -180
164 -307 67 -126 137 -257 155 -290 18 -33 52 -96 75 -140 23 -44 57 -107 75
-140 18 -33 51 -96 75 -140 23 -44 57 -107 75 -140 18 -33 51 -96 75 -140 80
-151 117 -220 152 -285 20 -36 59 -110 88 -165 29 -55 63 -118 75 -140 12 -22
39 -72 59 -111 l37 -71 302 1 302 1 1 1188 1 1187 -36 1 c-39 1 -258 1 -278 0
-10 -1 -13 -222 -13 -1071 0 -1012 -1 -1070 -17 -1071 -42 -3 -69 4 -78 19 -5
9 -39 71 -73 137 -35 66 -85 161 -112 210 -53 100 -122 231 -213 405 -33 63
-84 160 -113 214 -30 54 -54 101 -54 103 0 2 -31 61 -69 131 -37 70 -99 186
-136 257 -37 72 -87 166 -110 210 -23 44 -70 134 -105 200 -63 120 -131 247
-136 254 -7 8 -606 5 -612 -3z"/>
<path d="M3939 4579 c-5 -3 -9 -449 -10 -1055 0 -577 -4 -1072 -9 -1100 -13
-78 -46 -146 -84 -172 -43 -29 -165 -53 -288 -55 l-98 -2 -1 -37 c-1 -48 -1
-95 0 -157 l1 -48 119 3 c461 10 605 91 678 379 11 44 11 2235 0 2242 -12 8
-296 10 -308 2z"/>
<path d="M1515 1091 c-3 -2 -5 -58 -5 -123 l0 -118 -27 7 c-16 4 -75 7 -133 6
-165 0 -239 -35 -283 -133 -27 -60 -33 -224 -10 -290 23 -69 81 -121 148 -135
34 -6 140 -7 170 -1 28 5 103 26 120 32 7 3 15 -2 17 -12 3 -16 30 -20 98 -15
6 1 10 138 10 391 l0 390 -22 1 c-13 0 -36 2 -51 3 -15 1 -30 0 -32 -3z m-47
-307 l42 -5 0 -184 0 -184 -42 -12 c-73 -19 -91 -22 -159 -22 -114 0 -153 52
-153 202 0 140 41 198 151 210 57 6 75 6 161 -5z"/>
<path d="M2348 865 c-2 -2 -25 -6 -52 -9 -131 -18 -196 -108 -198 -273 -2
-205 88 -287 312 -285 173 2 257 54 286 179 15 63 12 180 -6 236 -18 60 -71
111 -134 131 -44 14 -199 29 -208 21z m172 -95 c55 -29 79 -101 73 -219 -4
-90 -29 -143 -75 -162 -49 -21 -195 -18 -235 4 -54 29 -68 67 -68 187 0 114
11 149 55 181 48 36 192 41 250 9z"/>
<path d="M3355 855 c-150 -28 -199 -98 -198 -285 0 -198 83 -271 308 -271 212
0 299 81 298 281 -1 159 -50 239 -166 271 -56 15 -174 17 -242 4z m202 -74
c25 -2 73 -54 83 -92 11 -40 15 -156 6 -194 -20 -90 -65 -121 -181 -123 -80
-1 -146 21 -167 56 -36 61 -42 198 -13 277 25 66 112 100 215 83 25 -4 50 -7
57 -7z"/>
<path d="M1822 430 c-4 -3 -8 -31 -8 -62 l-1 -58 62 0 62 0 -3 53 c-1 28 -2
57 -3 62 -1 11 -95 15 -109 5z"/>
<path d="M2870 373 c0 -69 -4 -65 70 -65 17 0 35 1 40 1 6 1 10 29 10 64 l0
62 -60 1 -60 0 0 -63z"/>
<path d="M3929 406 c0 -17 -2 -41 -3 -53 -4 -32 5 -41 39 -43 80 -6 80 -6 81
60 0 33 -2 60 -5 61 -3 1 -30 2 -58 3 -53 3 -53 2 -54 -28z"/>
</g>
</svg>
